<?xml version="1.0" encoding="UTF-8" standalone="no" ?>
<!DOCTYPE svg PUBLIC "-//W3C//DTD SVG 1.1//EN" "http://www.w3.org/Graphics/SVG/1.1/DTD/svg11.dtd">
<svg xmlns="http://www.w3.org/2000/svg" xmlns:xlink="http://www.w3.org/1999/xlink" version="1.1" width="1080" height="1080" viewBox="0 0 1080 1080" xml:space="preserve">
<desc>Created with Fabric.js 5.2.4</desc>
<defs>
</defs>
<rect x="0" y="0" width="100%" height="100%" fill="transparent"></rect>
<g transform="matrix(1 0 0 1 540 540)" id="f2fc9cdf-4d43-4ab6-b01f-58a64b8cd9cf"  >
<rect style="stroke: none; stroke-width: 1; stroke-dasharray: none; stroke-linecap: butt; stroke-dashoffset: 0; stroke-linejoin: miter; stroke-miterlimit: 4; fill: rgb(255,255,255); fill-rule: nonzero; opacity: 1; visibility: hidden;" vector-effect="non-scaling-stroke"  x="-540" y="-540" rx="0" ry="0" width="1080" height="1080" />
</g>
<g transform="matrix(1 0 0 1 540 540)" id="a865aea7-0024-4471-870a-09f8bf55fbff"  >
</g>
<g transform="matrix(NaN NaN NaN NaN 0 0)"  >
<g style=""   >
</g>
</g>
<g transform="matrix(NaN NaN NaN NaN 0 0)"  >
<g style=""   >
</g>
</g>
<g transform="matrix(1 0 0 1 310.37 292.43)"  >
<g style="" vector-effect="non-scaling-stroke"   >
		<g transform="matrix(1 0 0 1 -265.76 -243.29)"  >
<rect style="stroke: none; stroke-width: 1; stroke-dasharray: none; stroke-linecap: butt; stroke-dashoffset: 0; stroke-linejoin: miter; stroke-miterlimit: 4; fill: rgb(255,255,255); fill-opacity: 0; fill-rule: nonzero; opacity: 1;" vector-effect="non-scaling-stroke"  x="-50" y="-50" rx="0" ry="0" width="100" height="100" />
</g>
		<g transform="matrix(1 0 0 1 224.24 246.71)"  >
<rect style="stroke: none; stroke-width: 1; stroke-dasharray: none; stroke-linecap: butt; stroke-dashoffset: 0; stroke-linejoin: miter; stroke-miterlimit: 4; fill: rgb(255,255,255); fill-rule: nonzero; opacity: 1; visibility: hidden;" vector-effect="non-scaling-stroke"  x="-540" y="-540" rx="0" ry="0" width="1080" height="1080" />
</g>
		<g transform="matrix(1.05 0 0 1.04 -197.24 -225.12)"  >
<rect style="stroke: none; stroke-width: 1; stroke-dasharray: none; stroke-linecap: butt; stroke-dashoffset: 0; stroke-linejoin: miter; stroke-miterlimit: 4; fill: rgb(255,255,255); fill-rule: nonzero; opacity: 1; visibility: hidden;" vector-effect="non-scaling-stroke"  x="-540" y="-540" rx="0" ry="0" width="1080" height="1080" />
</g>
		<g transform="matrix(1.05 0 0 1.04 -128.01 -232.3)"  >
<path style="stroke: none; stroke-width: 1; stroke-dasharray: none; stroke-linecap: butt; stroke-dashoffset: 0; stroke-linejoin: miter; stroke-miterlimit: 4; fill: rgb(73,73,73); fill-rule: nonzero; opacity: 0.7;" vector-effect="non-scaling-stroke"  transform=" translate(-115.56, -31.32)" d="M 113.382 25.2739 L 113.382 37.3716 C 114.972 36.7987 116.449 35.9268 117.746 34.7894 L 117.746 25.2756 L 113.382 25.2756 L 113.382 25.2739 Z" stroke-linecap="round" />
</g>
		<g transform="matrix(1.05 0 0 1.04 -137.65 -239.43)"  >
<path style="stroke: none; stroke-width: 1; stroke-dasharray: none; stroke-linecap: butt; stroke-dashoffset: 0; stroke-linejoin: miter; stroke-miterlimit: 4; fill: rgb(73,73,73); fill-rule: nonzero; opacity: 0.7;" vector-effect="non-scaling-stroke"  transform=" translate(-106.38, -24.47)" d="M 113.382 32.5717 C 111.98 33.3798 110.388 33.8132 108.726 33.8132 C 106.231 33.8132 103.884 32.8422 102.12 31.0765 C 100.356 29.3125 99.3837 26.9672 99.3837 24.4708 C 99.3837 21.9743 100.355 19.629 102.12 17.865 C 103.884 16.101 106.231 15.1283 108.726 15.1283 C 110.552 15.1283 112.296 15.6508 113.793 16.6201 L 116.928 13.4852 C 114.573 11.7196 111.723 10.762 108.726 10.762 C 105.065 10.762 101.623 12.1883 99.0343 14.7772 C 96.4454 17.366 95.0191 20.8084 95.0191 24.4691 C 95.0191 28.1298 96.4454 31.5721 99.0343 34.161 C 101.623 36.7499 105.065 38.1762 108.726 38.1762 C 110.339 38.1762 111.908 37.899 113.382 37.3681 C 114.972 36.7952 116.449 35.9233 117.746 34.786 L 117.746 26.9051 C 117.328 28.4675 116.506 29.9005 115.332 31.0748 C 114.742 31.6645 114.085 32.1635 113.382 32.57 L 113.382 32.5717 Z" stroke-linecap="round" />
</g>
		<g transform="matrix(1.05 0 0 1.04 -104.68 -239.42)"  >
<path style="stroke: none; stroke-width: 1; stroke-dasharray: none; stroke-linecap: butt; stroke-dashoffset: 0; stroke-linejoin: miter; stroke-miterlimit: 4; fill: rgb(73,73,73); fill-rule: nonzero; opacity: 0.7;" vector-effect="non-scaling-stroke"  transform=" translate(-137.8, -24.46)" d="M 135.376 10.7654 L 126.494 10.7654 L 126.494 15.5702 L 135.376 15.5702 C 140.293 15.5702 144.295 19.5602 144.295 24.4641 C 144.295 29.368 140.293 33.358 135.376 33.358 L 126.494 33.358 L 126.494 38.1628 L 135.376 38.1628 C 142.943 38.1628 149.1 32.0174 149.1 24.4641 C 149.1 16.9108 142.943 10.7654 135.376 10.7654 Z" stroke-linecap="round" />
</g>
		<g transform="matrix(1.05 0 0 1.04 -114.02 -239.42)"  >
<path style="stroke: none; stroke-width: 1; stroke-dasharray: none; stroke-linecap: butt; stroke-dashoffset: 0; stroke-linejoin: miter; stroke-miterlimit: 4; fill: rgb(73,73,73); fill-rule: nonzero; opacity: 0.7;" vector-effect="non-scaling-stroke"  transform=" translate(-128.9, -24.48)" d="M 131.299 33.3732 L 131.299 15.5853 L 131.299 10.7805 L 126.494 10.7805 L 126.494 15.5853 L 126.494 33.3732 L 126.494 38.178 L 131.299 38.178 L 131.299 33.3732 Z" stroke-linecap="round" />
</g>
		<g transform="matrix(1.05 0 0 1.04 -231.27 -231.68)"  >
<path style="stroke: none; stroke-width: 1; stroke-dasharray: none; stroke-linecap: butt; stroke-dashoffset: 0; stroke-linejoin: miter; stroke-miterlimit: 4; fill: rgb(73,73,73); fill-rule: nonzero; opacity: 0.7;" vector-effect="non-scaling-stroke"  transform=" translate(-17.22, -31.92)" d="M 24.8724 29.5393 L 9.5642 29.5393 L 7.76324 34.3038 L 12.8973 34.3038 L 12.9057 34.2803 L 21.5308 34.2803 L 21.5392 34.3038 L 26.6733 34.3038 L 24.8724 29.5393 Z" stroke-linecap="round" />
</g>
		<g transform="matrix(1.05 0 0 1.04 -235.67 -239.41)"  >
<path style="stroke: none; stroke-width: 1; stroke-dasharray: none; stroke-linecap: butt; stroke-dashoffset: 0; stroke-linejoin: miter; stroke-miterlimit: 4; fill: rgb(73,73,73); fill-rule: nonzero; opacity: 0.7;" vector-effect="non-scaling-stroke"  transform=" translate(-13.03, -24.47)" d="M 17.7794 10.7654 L 16.6639 10.7654 L 13.3644 19.4795 L 6.29999 38.1779 L 11.3803 38.1779 L 19.7669 16.0271 L 17.7794 10.7654 Z" stroke-linecap="round" />
</g>
		<g transform="matrix(1.05 0 0 1.04 -226.88 -239.41)"  >
<path style="stroke: none; stroke-width: 1; stroke-dasharray: none; stroke-linecap: butt; stroke-dashoffset: 0; stroke-linejoin: miter; stroke-miterlimit: 4; fill: rgb(73,73,73); fill-rule: nonzero; opacity: 0.7;" vector-effect="non-scaling-stroke"  transform=" translate(-21.4, -24.47)" d="M 28.1366 38.1779 L 24.2373 27.8577 L 17.7542 10.7654 L 16.6572 10.7654 L 14.663 16.0473 L 23.0563 38.1779 L 28.1366 38.1779 Z" stroke-linecap="round" />
</g>
		<g transform="matrix(1.05 0 0 1.04 -170.73 -241.59)"  >
<path style="stroke: none; stroke-width: 1; stroke-dasharray: none; stroke-linecap: butt; stroke-dashoffset: 0; stroke-linejoin: miter; stroke-miterlimit: 4; fill: rgb(73,73,73); fill-rule: nonzero; opacity: 0.7;" vector-effect="non-scaling-stroke"  transform=" translate(-74.89, -22.38)" d="M 80.3409 10.7654 L 65.1638 33.9981 L 69.5889 33.9981 L 84.6081 10.7654 L 80.3409 10.7654 Z" stroke-linecap="round" />
</g>
		<g transform="matrix(1.05 0 0 1.04 -162.75 -239.41)"  >
<path style="stroke: none; stroke-width: 1; stroke-dasharray: none; stroke-linecap: butt; stroke-dashoffset: 0; stroke-linejoin: miter; stroke-miterlimit: 4; fill: rgb(73,73,73); fill-rule: nonzero; opacity: 0.7;" vector-effect="non-scaling-stroke"  transform=" translate(-82.47, -24.47)" d="M 84.6081 10.7654 L 80.3409 10.7654 L 80.3409 38.1779 L 84.6081 38.1779 L 84.6081 10.7654 Z" stroke-linecap="round" />
</g>
		<g transform="matrix(1.05 0 0 1.04 -169.24 -231.74)"  >
<path style="stroke: none; stroke-width: 1; stroke-dasharray: none; stroke-linecap: butt; stroke-dashoffset: 0; stroke-linejoin: miter; stroke-miterlimit: 4; fill: rgb(73,73,73); fill-rule: nonzero; opacity: 0.7;" vector-effect="non-scaling-stroke"  transform=" translate(-76.3, -31.86)" d="M 67.9509 29.731 L 65.1638 33.9982 L 87.4356 33.9982 L 87.4356 29.731 L 67.9509 29.731 Z" stroke-linecap="round" />
</g>
		<g transform="matrix(1.05 0 0 1.04 -208.45 -239.5)"  >
<path style="stroke: none; stroke-width: 1; stroke-dasharray: none; stroke-linecap: butt; stroke-dashoffset: 0; stroke-linejoin: miter; stroke-miterlimit: 4; fill: rgb(73,73,73); fill-rule: nonzero; opacity: 0.7;" vector-effect="non-scaling-stroke"  transform=" translate(-38.95, -24.4)" d="M 41.3666 33.3447 L 41.3666 15.4527 L 41.3666 10.6194 L 36.5333 10.6194 L 36.5333 15.4527 L 36.5333 33.3447 L 36.5333 38.1781 L 41.3666 38.1781 L 41.3666 33.3447 Z" stroke-linecap="round" />
</g>
		<g transform="matrix(1.05 0 0 1.04 -199.08 -231.9)"  >
<path style="stroke: none; stroke-width: 1; stroke-dasharray: none; stroke-linecap: butt; stroke-dashoffset: 0; stroke-linejoin: miter; stroke-miterlimit: 4; fill: rgb(73,73,73); fill-rule: nonzero; opacity: 0.7;" vector-effect="non-scaling-stroke"  transform=" translate(-47.89, -31.71)" d="M 54.3967 25.2505 C 53.9582 29.7781 50.1211 33.3313 45.4675 33.3313 L 36.5333 33.3313 L 36.5333 38.1646 L 45.4675 38.1646 C 52.7873 38.1646 58.7933 32.4459 59.2418 25.2505 L 54.3967 25.2505 Z" stroke-linecap="round" />
</g>
		<g transform="matrix(1.05 0 0 1.04 -191.76 -246.63)"  >
<path style="stroke: none; stroke-width: 1; stroke-dasharray: none; stroke-linecap: butt; stroke-dashoffset: 0; stroke-linejoin: miter; stroke-miterlimit: 4; fill: rgb(73,73,73); fill-rule: nonzero; opacity: 0.7;" vector-effect="non-scaling-stroke"  transform=" translate(-54.85, -17.54)" d="M 59.2452 23.5469 C 58.9142 18.0634 55.356 13.4367 50.4453 11.5349 L 50.4453 16.9445 C 52.6327 18.4044 54.138 20.7968 54.395 23.5469 L 59.2435 23.5469 L 59.2452 23.5469 Z" stroke-linecap="round" />
</g>
		<g transform="matrix(1.05 0 0 1.04 -201.16 -250.94)"  >
<path style="stroke: none; stroke-width: 1; stroke-dasharray: none; stroke-linecap: butt; stroke-dashoffset: 0; stroke-linejoin: miter; stroke-miterlimit: 4; fill: rgb(73,73,73); fill-rule: nonzero; opacity: 0.7;" vector-effect="non-scaling-stroke"  transform=" translate(-45.9, -13.41)" d="M 48.6125 10.6646 L 43.181 10.6646 L 43.181 16.1464 L 48.6125 16.1464 L 48.6125 10.6646 Z" stroke-linecap="round" />
</g>
		<g transform="matrix(1.05 0 0 1.04 -194.63 -258.05)"  >
<path style="stroke: none; stroke-width: 1; stroke-dasharray: none; stroke-linecap: butt; stroke-dashoffset: 0; stroke-linejoin: miter; stroke-miterlimit: 4; fill: rgb(73,73,73); fill-rule: nonzero; opacity: 0.7;" vector-effect="non-scaling-stroke"  transform=" translate(-52.1, -6.56)" d="M 54.82 3.82202 L 49.3886 3.82202 L 49.3886 9.30386 L 54.82 9.30386 L 54.82 3.82202 Z" stroke-linecap="round" />
</g>
		<g transform="matrix(1.05 0 0 1.04 -267.2 -241.92)"  >
<path style="stroke: rgb(0,0,0); stroke-width: 0; stroke-dasharray: none; stroke-linecap: butt; stroke-dashoffset: 0; stroke-linejoin: miter; stroke-miterlimit: 4; fill: rgb(114,126,122); fill-rule: nonzero; opacity: 1;" vector-effect="non-scaling-stroke"  transform=" translate(-14.72, -21)" d="M 23.652 11.7121 C 20.6739 6.79667 17.3617 2.54249 15.6522 0.444054 C 15.4234 0.163028 15.0801 -0.000109507 14.7178 5.51503e-8 C 14.3554 5.51503e-8 14.0122 0.163138 13.7834 0.444164 C 12.074 2.54326 8.76169 6.79886 5.78368 11.7147 C 1.94593 18.0499 0 23.2877 0 27.2823 C 0 35.3977 6.60233 42 14.7177 42 C 22.8331 42 29.4354 35.3977 29.4354 27.2823 C 29.4355 23.2851 27.4898 18.0465 23.652 11.7121 Z M 16.7374 36.5792 C 15.878 36.799 14.9859 36.9103 14.0854 36.9103 C 8.58694 36.9103 4.11362 32.7547 4.11362 27.6468 C 4.11362 26.4137 4.43902 24.973 5.08051 23.3648 C 5.18886 23.0931 5.49761 22.9381 5.80197 23.0038 C 6.10612 23.0694 6.31034 23.3345 6.27901 23.6229 C 6.24154 23.9678 6.22247 24.3047 6.22247 24.6238 C 6.22247 30.1824 10.7015 34.8373 16.6411 35.4508 C 16.9367 35.4814 17.1673 35.7025 17.1909 35.978 C 17.2145 36.2536 17.0241 36.5058 16.7374 36.5792 Z" stroke-linecap="round" />
</g>
</g>
</g>
</svg>